<?xml version="1.0" encoding="UTF-8"?>
<svg version="1.1" viewBox="0 0 512 512" width="512" height="512" xmlns="http://www.w3.org/2000/svg">

    <!-- Barcode lines -->
    <g fill="#ffffff">
        <rect x="80" y="130" width="14" height="252" rx="7"/>
        <rect x="110" y="130" width="28" height="252" rx="7"/>
        <rect x="154" y="130" width="10" height="252" rx="5"/>
        <rect x="178" y="130" width="22" height="252" rx="7"/>
        <rect x="216" y="130" width="14" height="252" rx="7"/>
        <rect x="244" y="130" width="32" height="252" rx="7"/>
        <rect x="290" y="130" width="10" height="252" rx="5"/>
        <rect x="314" y="130" width="18" height="252" rx="7"/>
        <rect x="348" y="130" width="28" height="252" rx="7"/>
        <rect x="392" y="130" width="10" height="252" rx="5"/>
        <rect x="416" y="130" width="24" height="252" rx="7"/>
    </g>

    <!-- Scan line -->
    <rect x="60" y="248" width="392" height="16" rx="8" fill="#22D3EE"/>

</svg>