<?xml version="1.0" encoding="UTF-8"?>
<svg version="1.1" viewBox="0 0 1080 1080" width="1080" height="1080" xmlns="http://www.w3.org/2000/svg">
    <defs>
        <linearGradient id="bgGrad" x1="0%" y1="0%" x2="100%" y2="100%">
            <stop offset="0%" style="stop-color:#6366F1"/>
            <stop offset="100%" style="stop-color:#8B5CF6"/>
        </linearGradient>
    </defs>

    <!-- Background -->
    <rect width="1080" height="1080" rx="240" fill="url(#bgGrad)"/>

    <!-- Barcode lines -->
    <g fill="#ffffff">
        <rect x="180" y="280" width="28" height="520" rx="14"/>
        <rect x="240" y="280" width="56" height="520" rx="14"/>
        <rect x="328" y="280" width="20" height="520" rx="10"/>
        <rect x="376" y="280" width="44" height="520" rx="14"/>
        <rect x="452" y="280" width="28" height="520" rx="14"/>
        <rect x="508" y="280" width="64" height="520" rx="14"/>
        <rect x="600" y="280" width="20" height="520" rx="10"/>
        <rect x="648" y="280" width="36" height="520" rx="14"/>
        <rect x="716" y="280" width="56" height="520" rx="14"/>
        <rect x="804" y="280" width="20" height="520" rx="10"/>
        <rect x="852" y="280" width="48" height="520" rx="14"/>
    </g>

    <!-- Scan line -->
    <rect x="140" y="525" width="800" height="30" rx="15" fill="#22D3EE"/>

</svg>